<svg data-v-0dd9719b="" version="1.0" xmlns="http://www.w3.org/2000/svg" xmlns:xlink="http://www.w3.org/1999/xlink" width="100%" height="100%" viewBox="0 0 340.000000 250.000000" preserveAspectRatio="xMidYMid meet" color-interpolation-filters="sRGB" style="margin: auto;"> <rect data-v-0dd9719b="" x="0" y="0" width="100%" height="100%" fill="#fff" fill-opacity="1" class="background"></rect> <rect data-v-0dd9719b="" x="0" y="0" width="100%" height="100%" fill="url(#watermark)" fill-opacity="1" class="watermarklayer"></rect> <g data-v-0dd9719b="" fill="#333" class="icon-text-wrapper icon-svg-group iconsvg" transform="translate(47.834999084472656,92.21383285522461)"><g class="iconsvg-imagesvg" transform="translate(0,0)"><g><rect fill="#333" fill-opacity="0" stroke-width="2" x="0" y="0" width="60" height="65.57233721667286" class="image-rect"></rect> <svg x="0" y="0" width="60" height="65.57233721667286" filtersec="colorsb5179334050" class="image-svg-svg primary" style="overflow: visible;"><svg xmlns="http://www.w3.org/2000/svg" viewBox="-0.000005335050900612259 0 46.28000259399414 50.57786560058594"><path d="M21.22 0v21.66a4.19 4.19 0 0 1-2.11 3.64L.36 36.12A8.52 8.52 0 0 1 0 33.66V16.72a8.48 8.48 0 0 1 1.13-4.23 8.59 8.59 0 0 1 3.11-3.11L18.9.91A8.75 8.75 0 0 1 21.22 0z" fill="#2a3294"></path><path d="M44 39.45A8.7 8.7 0 0 1 42 41l-14.62 8.46a8.6 8.6 0 0 1-8.48 0L4.24 41a8.42 8.42 0 0 1-1.95-1.56L21 28.63a4.17 4.17 0 0 1 4.21 0z" fill="#ff006f"></path><path d="M46.28 16.72v16.94a8.52 8.52 0 0 1-.37 2.46L27.16 25.3a4.23 4.23 0 0 1-2.1-3.65V0a8.89 8.89 0 0 1 2.32.91L42 9.38a8.52 8.52 0 0 1 4.24 7.34z" fill="#0087ff"></path></svg></svg> <!----></g></g> <g transform="translate(67.00000381469727,8.224918365478516)"><g data-gra="path-name" fill-rule="" class="tp-name iconsvg-namesvg" transform="translate(0,0)"><g transform="scale(1)"><g><path d="M16.59-25.73L16.59-29.81Q19.97-28.69 19.97-28.55L19.97-28.55Q19.97-28.41 19.55-28.13L19.55-28.13Q18.7-27.56 18.7-27.28L18.7-27.28 18.7-25.73 25.88-25.73Q26.02-25.73 26.58-26.58L26.58-26.58Q27-27.42 27.14-27.42L27.14-27.42Q29.11-26.44 29.95-25.59L29.95-25.59Q29.95-25.45 29.25-25.03L29.25-25.03Q28.55-24.47 28.55-24.33L28.55-24.33 28.55-18.98Q27.42-18.28 26.44-18.28L26.44-18.28 26.44-20.11 18.7-20.11 18.7-16.73 29.39-16.73 31.22-18.98 34.45-16.17 34.31-15.89 3.94-15.89 2.39-15.75 1.69-16.73 16.59-16.73 16.59-20.11 9.28-20.11 9.28-18.98Q8.3-18.28 7.03-18.28L7.03-18.28Q7.17-22.92 7.17-26.72L7.17-26.72 9.42-25.73 16.59-25.73ZM16.59-20.95L16.59-24.89 9.98-24.89Q9.14-25.03 9.28-23.77L9.28-23.77 9.28-20.95 16.59-20.95ZM26.44-24.89L18.7-24.89 18.7-20.95 26.44-20.95 26.44-24.89ZM25.59-14.48L25.59-14.48Q27.28-13.64 28.55-12.23L28.55-12.23Q28.55-12.09 27.98-11.81L27.98-11.81Q27.28-11.53 27.28-11.39L27.28-11.39Q27.28-8.58 27.42-4.64L27.42-4.64Q26.3-3.8 25.03-3.66L25.03-3.66 25.03-12.09 10.97-12.09Q10.41-12.23 10.41-11.39L10.41-11.39 10.41-3.38Q9.14-2.53 8.02-2.53L8.02-2.53Q8.02-3.52 8.16-5.77L8.16-5.77Q8.3-10.41 8.3-14.2L8.3-14.2 10.83-12.94 24.47-12.94Q24.75-12.94 25.31-14.06L25.31-14.06Q25.59-14.48 25.59-14.48ZM16.31-10.83L16.31-10.83Q19.83-9.7 19.69-9.28L19.69-9.28Q19.69-9.28 19.55-9.14L19.55-9.14Q18.7-9 18.56-8.16L18.56-8.16Q17.86 2.11 1.69 4.36L1.69 4.36 1.55 3.8Q10.41 1.41 13.08-1.41L13.08-1.41Q16.03-4.22 16.31-10.83ZM18.42-3.66L18.7-4.22Q27-1.97 29.81-0.7L29.81-0.7Q31.92 1.27 30.66 3.52L30.66 3.52Q30.38 3.66 29.11 2.53L29.11 2.53Q24.33-1.83 18.42-3.66L18.42-3.66ZM45.28-29.11L45.28-29.11Q48.09-27.98 48.94-27.56L48.94-27.56Q48.94-27.56 48.52-27.14L48.52-27.14Q47.67-26.58 47.67-26.44L47.67-26.44Q47.81-6.47 45.56-3.23L45.56-3.23Q43.45 0.56 37.41 3.94L37.41 3.94 36.98 3.38Q47.25-0.98 45.28-25.31L45.28-25.31Q45.28-27.84 45.28-29.11ZM64.13-28.83L64.13-28.83Q66.94-27.84 67.64-27.28L67.64-27.28Q67.64-27.28 67.22-26.86L67.22-26.86Q66.52-26.16 66.52-26.02L66.52-26.02 66.94 2.39Q66.23 3.23 64.27 3.52L64.27 3.52Q64.27 1.27 64.27-8.86L64.27-8.86Q64.13-24.05 64.13-28.83ZM54.84-27.98L54.84-27.98Q57.8-26.86 58.22-26.3L58.22-26.3Q58.22-26.3 57.8-25.88L57.8-25.88Q57.09-25.17 57.09-25.03L57.09-25.03 57.09-1.27Q56.67-0.7 54.7-0.14L54.7-0.14Q54.84-7.59 54.84-15.61L54.84-15.61Q54.98-23.2 54.84-27.98ZM41.06-19.55L41.06-19.55 41.48-19.69Q43.03-13.64 41.34-11.53L41.34-11.53Q40.22-10.13 38.81-10.41L38.81-10.41Q37.41-10.83 38.39-12.23L38.39-12.23Q38.53-12.38 38.67-12.52L38.67-12.52Q40.92-14.63 41.06-19.55ZM48.52-18.98L49.08-19.27Q52.59-15.61 52.73-14.63L52.73-14.63Q52.59-11.53 50.63-11.67L50.63-11.67Q50.2-11.81 50.2-13.08L50.2-13.08Q50.2-16.31 48.52-18.98L48.52-18.98ZM58.22-18.98L58.64-19.41Q61.88-16.17 62.44-14.48L62.44-14.48Q62.02-11.81 60.33-11.81L60.33-11.81Q60.19-11.95 60.05-12.94L60.05-12.94Q59.77-16.31 58.22-18.98L58.22-18.98ZM88.45-25.45L88.45-29.67Q90.56-28.69 91.83-27.84L91.83-27.84Q91.83-27.84 91.41-27.56L91.41-27.56Q90.7-27.14 90.56-26.86L90.56-26.86 90.56-25.45 100.41-25.45 101.81-27.28 104.77-24.89 104.63-24.75 90.56-24.75 90.56-21.66 97.31-21.66 98.72-23.34 101.39-21.09 101.25-20.95 79.59-20.95 78.05-20.67 77.48-21.66 88.45-21.66 88.45-24.75 76.5-24.75 75.09-24.33 74.39-25.45 88.45-25.45ZM96.19-18.42L97.17-19.55Q97.31-19.55 97.45-19.27L97.45-19.27Q98.86-18.42 99.84-17.72L99.84-17.72Q99.84-17.58 98.58-16.73L98.58-16.73Q98.58-14.63 98.72-12.8L98.72-12.8Q97.59-12.23 96.61-12.23L96.61-12.23 96.61-13.5 93.66-13.5Q93.8-13.5 93.94-13.36L93.94-13.36Q94.78-13.08 95.34-12.66L95.34-12.66Q94.22-12.38 91.83-9.98L91.83-9.98 101.39-9.98 103.22-12.09 106.03-9.42 105.89-9.28 81.84-9.28Q81.84-9.14 84.09-8.3L84.09-8.3Q84.09-8.3 83.95-8.16L83.95-8.16Q83.11-7.45 82.69-5.48L82.69-5.48 86.34-5.48Q87.05-6.61 87.47-6.89L87.47-6.89Q87.61-7.03 87.61-7.03L87.61-7.03Q88.03-6.61 88.88-5.91L88.88-5.91Q89.72-5.06 89.86-4.92L89.86-4.92Q89.86-4.92 89.58-4.78L89.58-4.78Q89.16-4.64 88.73-4.22L88.73-4.22Q88.59-3.52 88.45-2.11L88.45-2.11Q88.59 3.09 84.38 3.94L84.38 3.94Q84.52 1.69 81.28 0.84L81.28 0.84 81.28 0.56Q84.94 1.27 85.5 0.84L85.5 0.84Q86.48 0 86.77-4.64L86.77-4.64 82.41-4.64Q80.86 2.39 72.56 4.22L72.56 4.22 72.42 3.8Q79.17 1.41 80.44-4.64L80.44-4.64 77.63-4.64 76.08-4.36 75.38-5.48 80.58-5.48Q80.58-5.77 80.72-6.47L80.72-6.47Q81.14-8.58 80.86-9.28L80.86-9.28 75.09-9.28 73.69-8.86 72.98-9.98 85.5-9.98Q85.08-12.38 83.67-13.5L83.67-13.5 82.55-13.5 82.55-12.66Q82.13-11.95 80.3-11.95L80.3-11.95Q80.3-12.8 80.3-14.63L80.3-14.63Q80.44-18.42 80.3-19.41L80.3-19.41Q81.28-18.98 82.41-18.42L82.41-18.42 96.19-18.42ZM96.61-14.34L96.61-17.58 83.25-17.58Q82.55-17.72 82.55-16.88L82.55-16.88 82.55-14.34 96.61-14.34ZM92.67-13.5L92.67-13.5 84.94-13.5Q88.45-11.67 86.48-9.98L86.48-9.98 90.84-9.98Q92.11-11.95 92.67-13.5ZM99.84-5.91L100.83-7.31Q101.11-7.17 101.25-7.03L101.25-7.03Q101.81-6.75 101.95-6.61L101.95-6.61Q102.09-6.33 103.5-5.34L103.5-5.34 102.23-4.36 102.38 2.11Q101.67 2.81 100.41 2.81L100.41 2.81 100.41 0.56 94.36 0.56 94.36 2.39Q93.94 3.09 92.25 3.09L92.25 3.09 92.39-7.17Q92.53-7.03 93.09-6.89L93.09-6.89Q94.64-6.05 94.92-5.91L94.92-5.91 99.84-5.91ZM100.41-0.28L100.41-5.06 95.48-5.06Q94.22-5.2 94.36-4.22L94.36-4.22 94.36-0.28 100.41-0.28ZM125.16-29.25L125.16-29.25Q128.11-27.84 127.97-27.84L127.97-27.84Q127.97-27.7 127.55-27.56L127.55-27.56Q126.98-27.42 126.84-27.28L126.84-27.28Q132.61-22.78 143.44-22.22L143.44-22.22 143.44-21.8Q141.19-21.52 140.34-20.11L140.34-20.11Q140.2-19.83 140.2-19.83L140.2-19.83Q134.72-21.38 131.06-23.34L131.06-23.34 132.89-21.8 132.89-21.52 126.84-21.52 126.84-19.27 132.05-19.27 133.73-20.67 136.27-18.7 136.13-18.42 132.19-18.42Q134.02-17.16 133.88-17.16L133.88-17.16Q133.88-17.16 133.73-17.02L133.73-17.02Q133.03-16.88 132.61-16.45L132.61-16.45Q132.05-16.03 130.78-14.77L130.78-14.77 135.98-14.77 137.95-16.73 140.63-14.06 140.48-13.92 132.19-13.92Q133.31-13.22 134.3-12.52L134.3-12.52Q134.3-12.52 134.16-12.38L134.16-12.38Q133.73-12.38 133.45-12.23L133.45-12.23Q137.39-8.44 143.02-8.02L143.02-8.02 143.02-7.59Q141.33-7.45 140.48-6.19L140.48-6.19Q135.84-8.3 133.03-11.95L133.03-11.95Q129.52-8.72 127.55-7.31L127.55-7.31 134.3-7.31 135.56-8.58 137.53-6.75 137.53-6.61 133.59-6.61 133.59-3.66 136.83-3.66 138.38-5.2 140.48-3.23 140.48-2.95 133.59-2.95 133.59 2.95 134.72 2.95Q136.27 0.28 137.11-2.11L137.11-2.11Q139.5-1.27 139.5-0.98L139.5-0.98Q139.5-0.98 139.36-0.84L139.36-0.84Q138.09-0.14 135.56 2.95L135.56 2.95 138.66 2.95 140.34 0.84 142.88 3.52 142.59 3.66 125.86 3.66 123.89 4.22 123.19 2.95 131.77 2.95 131.77-2.95 127.55-2.95 126.28-2.67 125.44-3.66 131.77-3.66 131.77-6.61 129.09-6.61 127.83-6.19 127.13-7.03Q125.44-5.91 124.17-5.06L124.17-5.06 123.89-5.48Q128.81-9.28 131.77-13.92L131.77-13.92 118.13-13.92Q118.41-13.78 119.11-13.36L119.11-13.36Q119.95-13.08 119.95-12.94L119.95-12.94Q119.95-12.94 119.53-12.66L119.53-12.66Q118.83-12.23 118.55-11.95L118.55-11.95Q122.2-10.97 124.03-10.13L124.03-10.13Q125.02-9.56 124.88-8.3L124.88-8.3Q124.59-7.03 123.75-7.88L123.75-7.88Q123.61-8.02 123.33-8.3L123.33-8.3Q121.22-10.27 117.98-11.25L117.98-11.25Q115.17-8.44 114.19-7.59L114.19-7.59 119.39-7.59 120.52-8.86 122.48-7.03 122.48-6.89 118.83-6.89 118.83-4.08 120.94-4.08 122.2-5.48 124.03-3.66 124.03-3.23 118.83-3.23 118.83 1.27 120.23 1.13Q120.38 0.7 120.8-0.14L120.8-0.14Q121.64-1.83 121.78-2.39L121.78-2.39Q123.47-1.83 123.89-1.55L123.89-1.55Q123.89-1.55 123.75-1.55L123.75-1.55Q122.63-1.13 121.08 1.13L121.08 1.13 124.45 0.84 124.59 1.27Q112.92 3.38 110.81 3.94L110.81 3.94Q110.11 3.09 109.83 2.11L109.83 2.11Q109.83 1.97 110.53 1.97L110.53 1.97Q112.92 1.97 117.14 1.55L117.14 1.55 117.14-3.23 114.61-3.23 112.92-2.95 112.22-4.08 117.14-4.08 117.14-6.89 115.88-6.89 114.75-6.61 114.19-7.59Q114.05-7.45 113.77-7.31L113.77-7.31Q111.23-5.2 109.69-4.5L109.69-4.5 109.55-4.78Q113.63-8.02 117.42-13.92L117.42-13.92 113.34-13.92 111.94-13.5 111.09-14.77 120.23-14.77Q120.09-14.91 119.95-15.47L119.95-15.47Q119.53-17.02 117.98-18.42L117.98-18.42 116.58-18 115.45-19.27 124.88-19.27 124.88-21.52 120.09-21.52 118.69-21.23 117.98-21.8Q113.77-19.55 109.69-18.28L109.69-18.28 109.55-18.7Q120.23-23.48 125.16-29.25ZM125.86-26.86L125.86-26.86Q121.64-23.77 119.11-22.36L119.11-22.36 129.23-22.36 130.36-23.63Q128.67-24.61 125.86-26.86ZM131.63-18.42L126.84-18.42 126.84-14.77 129.66-14.77Q130.92-16.45 131.63-18.42L131.63-18.42ZM124.88-18.42L118.97-18.42Q121.08-17.3 121.5-16.45L121.5-16.45Q121.92-15.61 121.08-14.77L121.08-14.77 124.88-14.77 124.88-18.42ZM112.36-2.25L112.64-2.67Q114.19-1.83 115.03-0.84L115.03-0.84Q115.59 0 115.03 0.84L115.03 0.84Q114.19 1.69 113.91 0.7L113.91 0.7Q113.91 0.7 113.91 0.56L113.91 0.56Q113.48-0.98 112.36-2.25L112.36-2.25ZM126.56-2.11L126.84-2.25Q129.09-0.7 129.52 0.28L129.52 0.28Q129.8 1.13 128.95 1.97L128.95 1.97Q128.25 2.67 127.97 1.55L127.97 1.55Q128.11-0.56 126.56-2.11L126.56-2.11ZM161.86-28.97L161.86-28.97Q164.95-27.42 164.81-27.14L164.81-27.14Q164.67-27 164.39-26.86L164.39-26.86Q163.55-26.86 162.28-25.31L162.28-25.31 168.05-25.31Q168.19-25.31 168.75-26.02L168.75-26.02Q169.45-26.72 169.45-26.72L169.45-26.72Q171.14-25.73 171.98-24.33L171.98-24.33Q171.98-24.33 171.84-24.33L171.84-24.33Q169.88-24.75 166.5-20.25L166.5-20.25 171.7-20.25Q171.84-20.25 172.41-21.09L172.41-21.09Q173.11-21.94 173.11-21.94L173.11-21.94Q174.94-20.95 175.78-19.83L175.78-19.83Q175.78-19.69 175.22-19.27L175.22-19.27Q174.38-18.56 174.38-18.42L174.38-18.42Q174.38-15.89 174.66-12.23L174.66-12.23Q174.09-11.81 172.41-11.39L172.41-11.39 172.41-12.66 168.19-12.66 168.19-4.92Q167.77-3.23 170.16-3.52L170.16-3.52 173.39-3.52Q174.94-2.95 175.92-8.72L175.92-8.72 176.34-8.72Q175.92-4.92 177.19-3.94L177.19-3.94Q177.47-3.8 177.47-3.66L177.47-3.66Q176.91-1.83 174.52-1.69L174.52-1.69 169.17-1.69Q165.8-1.55 166.22-4.22L166.22-4.22 166.22-12.66 165.66-12.66Q164.11-4.5 153.98-0.98L153.98-0.98 153.7-1.55Q161.86-5.34 163.55-12.66L163.55-12.66 159.19-12.66 159.19-11.11Q158.2-10.55 157.22-10.41L157.22-10.41 157.5-20.11Q157.36-20.11 155.67-18.56L155.67-18.56Q153.84-17.16 153.7-17.02L153.7-17.02 153.42-17.3Q158.77-22.92 161.86-28.97ZM147.23-26.86L147.52-27.28Q151.73-25.45 152.86-23.63L152.86-23.63Q153.84-21.23 151.31-20.53L151.31-20.53Q150.89-20.53 150.61-21.66L150.61-21.66Q149.91-24.89 147.23-26.86L147.23-26.86ZM168.05-24.47L161.58-24.47 158.34-20.95 159.47-20.25 165.38-20.25Q166.92-22.22 168.05-24.47L168.05-24.47ZM164.39-19.55L164.39-19.55 160.73-19.55Q159.05-19.69 159.33-18.42L159.33-18.42 159.19-13.5 163.83-13.5Q164.25-17.16 164.39-19.55ZM172.41-13.5L172.41-19.55 166.5-19.55Q166.36-18.42 166.22-15.89L166.22-15.89Q165.94-14.2 165.94-13.5L165.94-13.5 172.41-13.5ZM151.31-15.61L151.31-15.61Q152.16-15.19 153.84-13.5L153.84-13.5Q153.84-13.36 153-12.8L153-12.8Q152.44-12.52 152.44-12.52L152.44-12.52 152.44-1.69Q154.41 2.81 178.88 0.7L178.88 0.7 178.88 0.98Q176.63 1.83 175.92 3.52L175.92 3.52Q174.66 3.52 172.13 3.52L172.13 3.52Q160.31 3.38 158.06 2.81L158.06 2.81Q156.23 2.39 153.14 0.14L153.14 0.14Q151.59-0.98 151.17-0.98L151.17-0.98Q149.91-1.13 147.38 2.25L147.38 2.25Q146.53 3.38 146.39 3.38L146.39 3.38Q145.27 2.53 144.7 1.27L144.7 1.27Q144.7 1.13 146.95-0.14L146.95-0.14Q149.34-1.41 150.33-1.97L150.33-1.97 150.33-13.36 146.81-13.36 145.27-13.08 144.84-14.06 149.91-14.06Q149.91-14.06 150.47-14.63L150.47-14.63Q151.17-15.61 151.31-15.61ZM169.59-10.27L169.88-10.55Q172.83-9.28 173.25-8.16L173.25-8.16Q174.23-6.05 172.27-5.63L172.27-5.63Q171.98-5.63 171.84-6.33L171.84-6.33Q171.28-8.58 169.59-10.27L169.59-10.27Z" transform="translate(-1.5499999523162842, 29.809999465942383)"></path></g> <!----> <!----> <!----> <!----> <!----> <!----> <!----></g></g> <g data-gra="path-slogan" fill-rule="" class="tp-slogan iconsvg-slogansvg" fill="#333" transform="translate(34.33444595336914,40.16999816894531)"><!----> <!----> <g transform="scale(1, 1)"><g transform="scale(1)"><path d="M7.31-3.61L4.69-3.61L4.69-4.59L8.44-4.59L8.44 0L7.69 0L7.41-1.08Q6.42 0.09 4.59 0.14L4.59 0.14Q2.86 0.14 1.92-0.75L1.92-0.75Q0.52-2.06 0.56-4.36L0.56-4.36Q0.89-8.63 4.64-8.81L4.64-8.81Q7.83-8.63 8.30-6L8.30-6L7.17-6Q6.70-7.78 4.59-7.83L4.59-7.83Q1.92-7.64 1.78-4.31L1.78-4.31Q1.78-0.75 4.64-0.75L4.64-0.75Q5.67-0.75 6.42-1.31L6.42-1.31Q7.36-2.06 7.31-3.61L7.31-3.61ZM15.89-3.19L15.89-8.58L17.06-8.58L17.06-3.05Q16.92 0.05 13.55 0.14L13.55 0.14Q10.41 0.05 10.27-2.86L10.27-2.86L10.27-8.58L11.44-8.58L11.44-3.19Q11.48-0.84 13.59-0.80L13.59-0.80Q15.89-0.84 15.89-3.19L15.89-3.19ZM19.03-8.58L20.20-8.58L20.20 0L19.03 0L19.03-8.58ZM23.02-1.03L28.31-1.03L28.31 0L21.56 0L21.56-0.94L26.81-7.59L21.94-7.59L21.94-8.58L28.31-8.58L28.31-7.59L23.02-1.03ZM30.61-5.06L35.11-5.06L35.11-8.58L36.28-8.58L36.28 0L35.11 0L35.11-3.98L30.61-3.98L30.61 0L29.44 0L29.44-8.58L30.61-8.58L30.61-5.06ZM44.86-4.27L44.86-4.27Q44.67-7.64 41.86-7.83L41.86-7.83Q39-7.69 38.86-4.27L38.86-4.27Q39-0.94 41.86-0.80L41.86-0.80Q44.67-0.98 44.86-4.27ZM46.03-4.27L46.03-4.27Q45.75 0 41.86 0.14L41.86 0.14Q37.92 0 37.64-4.27L37.64-4.27Q37.88-8.72 41.86-8.81L41.86-8.81Q45.75-8.67 46.03-4.27ZM53.06-3.19L53.06-8.58L54.23-8.58L54.23-3.05Q54.09 0.05 50.72 0.14L50.72 0.14Q47.58 0.05 47.44-2.86L47.44-2.86L47.44-8.58L48.61-8.58L48.61-3.19Q48.66-0.84 50.77-0.80L50.77-0.80Q53.06-0.84 53.06-3.19L53.06-3.19ZM58.64-1.92L58.64-2.77L59.72-2.77L59.72-2.16Q59.72-0.75 61.03-0.75L61.03-0.75Q62.39-0.75 62.39-2.25L62.39-2.25L62.39-8.58L63.56-8.58L63.56-2.30Q63.52 0.09 61.08 0.14L61.08 0.14Q58.78 0.09 58.64-1.92L58.64-1.92ZM65.53-8.58L66.70-8.58L66.70 0L65.53 0L65.53-8.58ZM74.34 0L73.50-2.48L70.03-2.48L69.14 0L67.97 0L71.20-8.58L72.52-8.58L75.61 0L74.34 0ZM71.77-7.31L70.41-3.52L73.08-3.52L71.81-7.31L71.77-7.31ZM83.39-8.58L80.48-4.41L83.53 0L82.08 0L79.73-3.52L77.39 0L75.98 0L79.08-4.41L76.17-8.58L77.63-8.58L79.78-5.30L81.98-8.58L83.39-8.58ZM84.80-8.58L85.97-8.58L85.97 0L84.80 0L84.80-8.58ZM89.34-8.58L93.66-1.64L93.66-8.58L94.78-8.58L94.78 0L93.47 0L89.11-6.94L89.06-6.94L89.06 0L87.94 0L87.94-8.58L89.34-8.58ZM106.83-8.58L103.59-3.47L103.59 0L102.42 0L102.42-3.47L99.19-8.58L100.55-8.58L102.98-4.45L105.47-8.58L106.83-8.58ZM108.05-8.58L109.22-8.58L109.22 0L108.05 0L108.05-8.58Z" transform="translate(-0.5609879032258065, 8.8125)"></path></g></g></g></g></g><defs v-gra="od"></defs></svg>